<svg width="256" height="256" viewBox="0 0 256 256" fill="none" xmlns="http://www.w3.org/2000/svg">
<rect width="256" height="256" rx="128" fill="#101010"/>
<path d="M110.745 186.709C103.48 186.709 97.6397 185.783 93.2237 183.932C88.8076 182.08 85.46 179.373 83.1808 175.812C80.9015 172.25 79.4058 167.834 78.6935 162.564C77.9812 157.293 77.6251 151.167 77.6251 144.187V76.0236H111.814V133.717C111.814 139.558 111.956 144.187 112.241 147.606C112.668 150.883 113.381 153.304 114.378 154.871C115.375 156.438 116.871 157.435 118.865 157.863C120.86 158.148 123.566 158.29 126.985 158.29C130.689 158.29 133.609 157.934 135.746 157.222C138.025 156.367 139.663 155.014 140.66 153.162C141.658 151.31 142.299 148.746 142.584 145.469C143.011 142.05 143.225 137.848 143.225 132.862V76.0236H177.627V185H144.934L144.079 171.752H142.156C140.162 175.456 137.598 178.447 134.464 180.726C131.33 182.863 127.768 184.359 123.78 185.214C119.791 186.211 115.446 186.709 110.745 186.709Z" fill="#D9D9D9"/>
</svg>
