<svg width="120" height="120" viewBox="0 0 120 120" fill="none" xmlns="http://www.w3.org/2000/svg">
<rect width="120" height="120" rx="60" fill="#101010"/>
<path d="M51.9119 87.6138C48.5064 87.6138 45.7686 87.1798 43.6986 86.3117C41.6286 85.4436 40.0594 84.1749 38.991 82.5055C37.9226 80.8362 37.2214 78.7661 36.8876 76.2955C36.5537 73.8248 36.3868 70.9535 36.3868 67.6815V35.7298H52.4127V62.7736C52.4127 65.5113 52.4795 67.6815 52.613 69.2841C52.8134 70.8199 53.1472 71.9551 53.6147 72.6896C54.0821 73.4242 54.7832 73.8916 55.7181 74.0919C56.6529 74.2255 57.9216 74.2922 59.5242 74.2922C61.2604 74.2922 62.6292 74.1253 63.6309 73.7914C64.6993 73.3908 65.4672 72.7564 65.9346 71.8883C66.402 71.0203 66.7025 69.8183 66.8361 68.2825C67.0364 66.6799 67.1365 64.7101 67.1365 62.3729V35.7298H83.2627V86.8125H67.9378L67.5372 80.6024H66.6357C65.7009 82.3386 64.4989 83.7409 63.0299 84.8093C61.5609 85.8109 59.8915 86.512 58.0218 86.9127C56.1521 87.3801 54.1155 87.6138 51.9119 87.6138Z" fill="#D9D9D9"/>
</svg>
